<svg xmlns="http://www.w3.org/2000/svg" viewBox="0 0 48 48">
  <defs>
    <linearGradient id="cloudflare-gradient" x1="0%" y1="0%" x2="100%" y2="100%">
      <stop offset="0%" style="stop-color:#f48120;stop-opacity:1" />
      <stop offset="100%" style="stop-color:#faae40;stop-opacity:1" />
    </linearGradient>
  </defs>
  <rect width="48" height="48" rx="8" fill="url(#cloudflare-gradient)"/>
  <path d="M38.6 25.5c-.2-1.1-1.3-1.9-2.5-1.9-1.5 0-2.7 1.2-2.7 2.7 0 .2 0 .4.1.6-1.1.2-2 1.2-2 2.4 0 1.3 1.1 2.4 2.4 2.4h8.4c1 0 1.8-.8 1.8-1.8 0-1-.8-1.8-1.8-1.8-.1 0-.2 0-.3 0 .1-.2.1-.4.1-.6 0-1.1-.7-2-1.5-2zm-9.3-9.7c-3.3 0-6 2.5-6.3 5.7-.9.4-1.5 1.3-1.5 2.4 0 1.4 1.1 2.5 2.5 2.5h.5c.1 1.4 1.3 2.5 2.7 2.5h11.6c1.5 0 2.8-1.2 2.8-2.8 0-1.5-1.2-2.8-2.8-2.8h-.2c-.4-4-3.8-7.1-7.9-7.1-1.4 0-2.7.4-3.9 1-.5-.9-1.5-1.4-2.6-1.4-1.7 0-3 1.3-3 3 0 .2 0 .3 0 .5-2.4.5-4.2 2.6-4.2 5.1 0 2.9 2.3 5.2 5.2 5.2h1.3c.2.9 1 1.6 2 1.6h10.3c1.1 0 2-.9 2-2s-.9-2-2-2h-6.5z" fill="white"/>
</svg>
